<svg version="1.1" id="Layer_1" xmlns="http://www.w3.org/2000/svg" xmlns:xlink="http://www.w3.org/1999/xlink" x="0px" y="-1px"
     viewBox="0 0 16 18" style="enable-background:new 0 0 16 16; position:relative; top:-1px;" xml:space="preserve">
<path d="M2.7,0C0.9,0-0.5,1.4-0.5,3.1v9.7c0,1.7,1.4,3.1,3.1,3.1h9.7c1.7,0,3.1-1.4,3.1-3.1V3.1c0-1.7-1.4-3.1-3.1-3.1L2.7,0L2.7,0z
     M3.5,2.6c0.8,0,1.3,0.5,1.4,1.3c0,0.7-0.5,1.3-1.4,1.3h0c-0.8,0-1.3-0.6-1.3-1.3C2.1,3.2,2.6,2.6,3.5,2.6L3.5,2.6z M10.6,6
    c1.6,0,2.8,1,2.8,3.3v4.2h-2.4V9.5c0-1-0.3-1.6-1.2-1.6c-0.7,0-1.1,0.4-1.2,0.9C8.4,8.9,8.4,9.1,8.4,9.4v4.1H6c0,0,0-6.6,0-7.3h2.4
    v1C8.7,6.7,9.3,6,10.6,6L10.6,6z M2.2,6.1h2.4v7.3H2.2V6.1L2.2,6.1z"/>
</svg>
